<?xml version="1.0" standalone="no"?>
<!DOCTYPE svg PUBLIC "-//W3C//DTD SVG 20010904//EN"
 "http://www.w3.org/TR/2001/REC-SVG-20010904/DTD/svg10.dtd">
<svg version="1.0" xmlns="http://www.w3.org/2000/svg"
 width="700.000000pt" height="700.000000pt" viewBox="0 0 700.000000 700.000000"
 preserveAspectRatio="xMidYMid meet">
<metadata>
Created by potrace 1.11, written by Peter Selinger 2001-2013
</metadata>
<g transform="translate(0.000000,700.000000) scale(0.100000,-0.100000)"
fill="#000000" stroke="none">
<path d="M4215 6984 c-144 -23 -242 -53 -362 -110 -194 -93 -356 -225 -489
-401 l-55 -73 -72 48 c-61 40 -117 69 -222 113 -11 5 -41 13 -68 19 -196 42
-371 30 -542 -37 -280 -111 -489 -351 -557 -642 l-23 -98 -60 0 c-336 2 -665
-210 -813 -523 -26 -56 -60 -153 -69 -200 -36 -186 -20 -353 49 -526 l20 -50
-43 -48 c-167 -182 -291 -446 -325 -691 -10 -74 -11 -303 -2 -355 5 -25 11
-58 14 -75 2 -16 14 -64 25 -105 116 -429 458 -777 889 -906 190 -56 440 -66
639 -25 116 25 277 84 364 136 32 19 61 35 63 35 16 0 172 128 241 198 28 29
54 49 57 44 14 -22 76 -278 91 -377 41 -261 49 -363 50 -620 0 -268 -15 -458
-44 -549 -6 -17 -12 -42 -15 -56 -5 -26 -13 -52 -65 -229 -82 -280 -193 -532
-280 -636 -67 -79 -77 -99 -65 -132 9 -26 15 -30 64 -51 122 -53 248 -33 515
83 148 64 136 64 243 -1 231 -139 384 -169 577 -110 50 15 120 36 156 47 65
19 89 42 89 83 0 7 -37 55 -83 107 -132 151 -221 310 -277 498 -24 81 -25 84
-45 186 -50 257 -63 622 -29 835 55 345 173 613 361 818 l58 64 64 -59 c176
-161 399 -272 637 -319 124 -25 369 -25 484 -1 401 84 720 318 912 668 50 91
118 280 133 374 2 11 7 38 11 60 9 55 10 287 1 358 -40 322 -221 640 -482 848
-122 96 -266 177 -386 215 -30 9 -71 22 -92 28 l-37 12 34 45 c105 135 197
336 237 519 18 83 23 137 23 255 1 197 -12 285 -65 439 -78 227 -216 427 -407
589 -143 121 -370 229 -577 272 -102 22 -342 27 -450 9z m-1039 -4180 c1 -93
-3 -179 -7 -192 -12 -33 -51 -48 -86 -33 -25 10 -33 27 -71 142 l-43 130 48
83 48 83 55 -22 55 -21 1 -170z m799 142 l39 -75 -64 -68 c-129 -137 -129
-136 -161 -136 -17 0 -39 8 -51 20 -18 18 -20 33 -20 119 0 55 0 109 1 120 1
17 13 25 61 38 33 10 79 26 103 36 23 11 44 20 47 20 3 0 23 -33 45 -74z"/>
</g>
</svg>
